  0
SECTION
  2
HEADER
  9
$ACADVER
  1
AC1009
  9
$INSBASE
 10
0.0
 20
0.0
 30
0.0
  9
$EXTMIN
 10
0.9830729504859193
 20
1.4137365963157
 30
0.0
  9
$EXTMAX
 10
153.7175966893997
 20
205.76331716344691
 30
0.0
  9
$LIMMIN
 10
0.0
 20
0.0
  9
$LIMMAX
 10
420.0
 20
297.0
  9
$ORTHOMODE
 70
     0
  9
$REGENMODE
 70
     1
  9
$FILLMODE
 70
     1
  9
$QTEXTMODE
 70
     0
  9
$MIRRTEXT
 70
     0
  9
$DRAGMODE
 70
     2
  9
$LTSCALE
 40
1.0
  9
$OSMODE
 70
    37
  9
$ATTMODE
 70
     1
  9
$TEXTSIZE
 40
2.5
  9
$TRACEWID
 40
1.0
  9
$TEXTSTYLE
  7
STANDARD
  9
$CLAYER
  8
0
  9
$CELTYPE
  6
BYLAYER
  9
$CECOLOR
 62
   256
  9
$DIMSCALE
 40
1.0
  9
$DIMASZ
 40
2.5
  9
$DIMEXO
 40
0.625
  9
$DIMDLI
 40
3.75
  9
$DIMRND
 40
0.0
  9
$DIMDLE
 40
0.0
  9
$DIMEXE
 40
1.25
  9
$DIMTP
 40
0.0
  9
$DIMTM
 40
0.0
  9
$DIMTXT
 40
2.5
  9
$DIMCEN
 40
2.5
  9
$DIMTSZ
 40
0.0
  9
$DIMTOL
 70
     0
  9
$DIMLIM
 70
     0
  9
$DIMTIH
 70
     0
  9
$DIMTOH
 70
     0
  9
$DIMSE1
 70
     0
  9
$DIMSE2
 70
     0
  9
$DIMTAD
 70
     1
  9
$DIMZIN
 70
     8
  9
$DIMBLK
  1

  9
$DIMASO
 70
     1
  9
$DIMSHO
 70
     1
  9
$DIMPOST
  1

  9
$DIMAPOST
  1

  9
$DIMALT
 70
     0
  9
$DIMALTD
 70
     3
  9
$DIMALTF
 40
0.03937007874016
  9
$DIMLFAC
 40
1.0
  9
$DIMTOFL
 70
     1
  9
$DIMTVP
 40
0.0
  9
$DIMTIX
 70
     0
  9
$DIMSOXD
 70
     0
  9
$DIMSAH
 70
     0
  9
$DIMBLK1
  1

  9
$DIMBLK2
  1

  9
$DIMSTYLE
  2
ISO-25
  9
$DIMCLRD
 70
     0
  9
$DIMCLRE
 70
     0
  9
$DIMCLRT
 70
     0
  9
$DIMTFAC
 40
1.0
  9
$DIMGAP
 40
0.625
  9
$LUNITS
 70
     2
  9
$LUPREC
 70
     4
  9
$SKETCHINC
 40
1.0
  9
$FILLETRAD
 40
0.0
  9
$AUNITS
 70
     0
  9
$AUPREC
 70
     0
  9
$MENU
  1
.
  9
$ELEVATION
 40
0.0
  9
$PELEVATION
 40
0.0
  9
$THICKNESS
 40
0.0
  9
$LIMCHECK
 70
     0
  9
$BLIPMODE
 70
     0
  9
$CHAMFERA
 40
0.0
  9
$CHAMFERB
 40
0.0
  9
$SKPOLY
 70
     0
  9
$TDCREATE
 40
2457102.8697709842
  9
$TDUPDATE
 40
2457106.4304114701
  9
$TDINDWG
 40
2.6032754860999998
  9
$TDUSRTIMER
 40
2.6032753704
  9
$USRTIMER
 70
     1
  9
$ANGBASE
 50
0.0
  9
$ANGDIR
 70
     0
  9
$PDMODE
 70
     0
  9
$PDSIZE
 40
0.0
  9
$PLINEWID
 40
0.0
  9
$COORDS
 70
     1
  9
$SPLFRAME
 70
     0
  9
$SPLINETYPE
 70
     6
  9
$SPLINESEGS
 70
     8
  9
$ATTDIA
 70
     1
  9
$ATTREQ
 70
     1
  9
$HANDLING
 70
     1
  9
$HANDSEED
  5
43E
  9
$SURFTAB1
 70
     6
  9
$SURFTAB2
 70
     6
  9
$SURFTYPE
 70
     6
  9
$SURFU
 70
     6
  9
$SURFV
 70
     6
  9
$UCSNAME
  2

  9
$UCSORG
 10
0.0
 20
0.0
 30
0.0
  9
$UCSXDIR
 10
1.0
 20
0.0
 30
0.0
  9
$UCSYDIR
 10
0.0
 20
1.0
 30
0.0
  9
$PUCSNAME
  2

  9
$PUCSORG
 10
0.0
 20
0.0
 30
0.0
  9
$PUCSXDIR
 10
1.0
 20
0.0
 30
0.0
  9
$PUCSYDIR
 10
0.0
 20
1.0
 30
0.0
  9
$USERI1
 70
     0
  9
$USERI2
 70
     0
  9
$USERI3
 70
     0
  9
$USERI4
 70
     0
  9
$USERI5
 70
     0
  9
$USERR1
 40
0.0
  9
$USERR2
 40
0.0
  9
$USERR3
 40
0.0
  9
$USERR4
 40
0.0
  9
$USERR5
 40
0.0
  9
$WORLDVIEW
 70
     1
  9
$SHADEDGE
 70
     3
  9
$SHADEDIF
 70
    70
  9
$TILEMODE
 70
     1
  9
$MAXACTVP
 70
    64
  9
$PLIMCHECK
 70
     0
  9
$PEXTMIN
 10
0.0
 20
0.0
 30
0.0
  9
$PEXTMAX
 10
0.0
 20
0.0
 30
0.0
  9
$PLIMMIN
 10
0.0
 20
0.0
  9
$PLIMMAX
 10
12.0
 20
9.0
  9
$UNITMODE
 70
     0
  9
$VISRETAIN
 70
     1
  9
$PLINEGEN
 70
     0
  9
$PSLTSCALE
 70
     1
  0
ENDSEC
  0
SECTION
  2
TABLES
  0
TABLE
  2
VPORT
 70
     1
  0
VPORT
  2
*ACTIVE
 70
     0
 10
0.0
 20
0.0
 11
1.0
 21
1.0
 12
173.45046509932229
 22
117.21280610581729
 13
0.0
 23
0.0
 14
10.0
 24
10.0
 15
10.0
 25
10.0
 16
0.0
 26
0.0
 36
1.0
 17
0.0
 27
0.0
 37
0.0
 40
537.46635593361327
 41
2.4533844189016598
 42
50.0
 43
0.0
 44
0.0
 50
0.0
 51
0.0
 71
     0
 72
  1000
 73
     1
 74
     3
 75
     0
 76
     1
 77
     0
 78
     0
  0
ENDTAB
  0
TABLE
  2
LTYPE
 70
     2
  0
LTYPE
  2
CONTINUOUS
 70
     0
  3
Solid line
 72
    65
 73
     0
 40
0.0
  0
ENDTAB
  0
TABLE
  2
LAYER
 70
     1
  0
LAYER
  2
0
 70
     0
 62
     7
  6
CONTINUOUS
  0
ENDTAB
  0
TABLE
  2
STYLE
 70
     2
  0
STYLE
  2
STANDARD
 70
     0
 40
0.0
 41
1.0
 50
0.0
 71
     0
 42
2.5
  3
txt
  4

  0
STYLE
  2
ANNOTATIVE
 70
     0
 40
0.0
 41
1.0
 50
0.0
 71
     0
 42
2.5
  3
txt
  4

  0
ENDTAB
  0
TABLE
  2
VIEW
 70
     5
  0
ENDTAB
  0
TABLE
  2
UCS
 70
     0
  0
ENDTAB
  0
TABLE
  2
APPID
 70
     9
  0
APPID
  2
ACAD
 70
     0
  0
APPID
  2
ACAD_PSEXT
 70
     0
  0
APPID
  2
ACADANNOPO
 70
     0
  0
APPID
  2
ACADANNOTATIVE
 70
     0
  0
APPID
  2
ACAD_DSTYLE_DIMJAG
 70
     0
  0
APPID
  2
ACAD_DSTYLE_DIMTALN
 70
     0
  0
APPID
  2
ACAD_MLEADERVER
 70
     0
  0
APPID
  2
ACAD_NAV_VCDISPLAY
 70
     0
  0
APPID
  2
ACAD_EXEMPT_FROM_CAD_STANDARDS
 70
     0
  0
ENDTAB
  0
TABLE
  2
DIMSTYLE
 70
     4
  0
DIMSTYLE
  2
STANDARD
 70
     0
  3

  4

  5

  6

  7

 40
1.0
 41
0.18
 42
0.0625
 43
0.38
 44
0.18
 45
0.0
 46
0.0
 47
0.0
 48
0.0
140
0.18
141
0.09
142
0.0
143
25.399999999999999
144
1.0
145
0.0
146
1.0
147
0.09
 71
     0
 72
     0
 73
     1
 74
     1
 75
     0
 76
     0
 77
     0
 78
     0
170
     0
171
     2
172
     0
173
     0
174
     0
175
     0
176
     0
177
     0
178
     0
  0
DIMSTYLE
  2
ANNOTATIVE
 70
     0
  3

  4

  5

  6

  7

 40
0.0
 41
2.5
 42
0.625
 43
3.75
 44
1.25
 45
0.0
 46
0.0
 47
0.0
 48
0.0
140
2.5
141
2.5
142
0.0
143
0.03937007874016
144
1.0
145
0.0
146
1.0
147
0.625
 71
     0
 72
     0
 73
     0
 74
     0
 75
     0
 76
     0
 77
     1
 78
     8
170
     0
171
     3
172
     1
173
     0
174
     0
175
     0
176
     0
177
     0
178
     0
  0
DIMSTYLE
  2
ISO-25
 70
     0
  3

  4

  5

  6

  7

 40
1.0
 41
2.5
 42
0.625
 43
3.75
 44
1.25
 45
0.0
 46
0.0
 47
0.0
 48
0.0
140
2.5
141
2.5
142
0.0
143
0.03937007874016
144
1.0
145
0.0
146
1.0
147
0.625
 71
     0
 72
     0
 73
     0
 74
     0
 75
     0
 76
     0
 77
     1
 78
     8
170
     0
171
     3
172
     1
173
     0
174
     0
175
     0
176
     0
177
     0
178
     0
  0
ENDTAB
  0
ENDSEC
  0
SECTION
  2
BLOCKS
  0
BLOCK
  8
0
  2
$MODEL_SPACE
 70
     0
 10
0.0
 20
0.0
 30
0.0
  3
$MODEL_SPACE
  1

  0
ENDBLK
  5
21
  8
0
  0
BLOCK
 67
     1
  8
0
  2
$PAPER_SPACE
 70
     0
 10
0.0
 20
0.0
 30
0.0
  3
$PAPER_SPACE
  1

  0
ENDBLK
  5
D5
 67
     1
  8
0
  0
ENDSEC
  0
SECTION
  2
ENTITIES
  0
LINE
  5
343
  8
0
 10
0.9830729504859193
 20
1.4137365963157
 30
0.0
 11
29.51120909939284
 21
29.941872745222629
 31
0.0
  0
LINE
  5
346
  8
0
 10
29.51120909939284
 20
29.941872745222629
 30
0.0
 11
58.039345248299753
 21
29.941872745222629
 31
0.0
  0
LINE
  5
347
  8
0
 10
58.039345248299753
 20
29.941872745222629
 30
0.0
 11
29.51120909939284
 21
1.4137365963157
 31
0.0
  0
LINE
  5
348
  8
0
 10
29.51120909939284
 20
1.4137365963157
 30
0.0
 11
0.9830729504859193
 21
1.4137365963157
 31
0.0
  0
CIRCLE
  5
34B
  8
0
 10
43.775277173846298
 20
44.205940819676087
 30
0.0
 40
14.26406807445346
  0
ARC
  5
34C
  8
0
 10
29.51120909939284
 20
1.4137365963157
 30
0.0
 40
40.344877051010329
 50
0.0
 51
45.000000000000568
  0
ARC
  5
352
  8
0
 10
102.55505695642159
 20
1.413736596315736
 30
0.0
 40
32.698970806018473
 50
119.25714074609959
 51
180.0
  0
ARC
  5
353
  8
0
 10
100.76620819018819
 20
2.4286664154259512
 30
0.0
 40
30.957558035452081
 50
62.713644914219543
 51
117.2863550857804
  0
ARC
  5
354
  8
0
 10
129.2600238930105
 20
60.244264460999062
 30
0.0
 40
33.508179646091278
 50
244.73458119947409
 51
295.26541880052588
  0
ARC
  5
355
  8
0
 10
136.95279367716279
 20
45.348630433300173
 30
0.0
 40
16.764803012236889
 50
293.21698977973051
 51
117.3138478213216
  0
ARC
  5
356
  8
0
 10
132.9895668806588
 20
52.73610507634254
 30
0.0
 40
8.3834329628214785
 50
116.4150611229382
 51
298.21263451970361
  0
ARC
  5
357
  8
0
 10
135.46989805666951
 20
49.30991949018572
 30
0.0
 40
4.2297506325408323
 50
290.52322336607932
 51
125.9020456733267
  0
ARC
  5
359
  8
0
 10
134.07369825307629
 20
50.910053857716321
 30
0.0
 40
2.1236298843504251
 50
120.6977149425699
 51
311.10637640408601
  0
ARC
  5
368
  8
0
 10
50.760130452599157
 20
101.6657412485505
 30
0.0
 40
49.731507451815702
 50
89.746300209800154
 51
180.0
  0
ARC
  5
369
  8
0
 10
50.980335708305773
 20
101.8847805395952
 30
0.0
 40
49.511980636917308
 50
359.69582002657728
 51
90.0
  0
ARC
  5
36A
  8
0
 10
125.9120871783137
 20
101.6219255381323
 30
0.0
 40
25.42046857571528
 50
180.0
 51
0.0
  0
ARC
  5
36B
  8
0
 10
125.912087178314
 20
111.0321054203699
 30
0.0
 40
27.106303842925279
 50
200.31360565194501
 51
339.68639434805209
  0
ARC
  5
36C
  8
0
 10
50.801296016656188
 20
195.11282399107009
 30
0.0
 40
105.87575856744679
 50
241.9589184151157
 51
297.9906014016629
  0
ARC
  5
36D
  8
0
 10
50.723684315801897
 20
18.93190195328825
 30
0.0
 40
96.511591447026305
 50
58.957888006106309
 51
120.99163181067389
  0
ARC
  5
36E
  8
0
 10
125.9120871783166
 20
127.2279364182953
 30
0.0
 40
36.081408173792411
 50
225.20833779297311
 51
314.79166220702041
  0
LINE
  5
37B
  8
0
 10
100.49161860259839
 20
101.6219255381322
 30
0.0
 11
126.00115189275139
 21
127.0114939689943
 31
0.0
  0
LINE
  5
37C
  8
0
 10
126.00115189275139
 20
127.0114939689943
 30
0.0
 11
151.33255575402899
 21
101.6219255381322
 31
0.0
  0
LINE
  5
37D
  8
0
 10
126.00115189275139
 20
127.0114939689943
 30
0.0
 11
126.00115189275139
 21
83.958316614427076
 31
0.0
  0
LINE
  5
37E
  8
0
 10
126.00115189275139
 20
127.0114939689943
 30
0.0
 11
126.00115189275139
 21
151.4128042968471
 31
0.0
  0
LINE
  5
37F
  8
0
 10
126.00115189275139
 20
151.4128042968471
 30
0.0
 11
150.76785065551229
 21
137.4056101179128
 31
0.0
  0
LINE
  5
380
  8
0
 10
150.76785065551229
 20
137.4056101179128
 30
0.0
 11
126.00115189275139
 21
127.0114939689943
 31
0.0
  0
LINE
  5
381
  8
0
 10
1.2088595166677569
 20
151.39001462597389
 30
0.0
 11
50.87200565079069
 21
201.4326355924143
 31
0.0
  0
LINE
  5
382
  8
0
 10
50.87200565079069
 20
201.4326355924143
 30
0.0
 11
100.9152765138078
 21
151.39676117651251
 31
0.0
  0
LINE
  5
383
  8
0
 10
100.9152765138078
 20
151.39676117651251
 30
0.0
 11
150.5748889614697
 21
201.18652290388081
 31
0.0
  0
LINE
  5
384
  8
0
 10
150.5748889614697
 20
201.18652290388081
 30
0.0
 11
100.6742095954889
 21
159.99537079618821
 31
0.0
  0
LINE
  5
385
  8
0
 10
100.6742095954889
 20
159.99537079618821
 30
0.0
 11
51.496729956333873
 21
205.76331716344691
 31
0.0
  0
LINE
  5
386
  8
0
 10
51.496729956333873
 20
205.76331716344691
 30
0.0
 11
1.2088595166677569
 21
151.39001462597389
 31
0.0
  0
ENDSEC
  0
EOF
